<mxfile host="app.diagrams.net" modified="2024-03-30T02:11:46.856Z" agent="Mozilla/5.0 (Windows NT 10.0; Win64; x64) AppleWebKit/537.36 (KHTML, like Gecko) Chrome/123.0.0.0 Safari/537.36" etag="CD6SpAmXRbRQWV1tJNW_" version="24.2.1" type="device">
  <diagram name="Page-1" id="2YBvvXClWsGukQMizWep">
    <mxGraphModel dx="2306" dy="1403" grid="1" gridSize="10" guides="1" tooltips="1" connect="1" arrows="1" fold="1" page="1" pageScale="1" pageWidth="850" pageHeight="1100" math="0" shadow="0">
      <root>
        <mxCell id="0" />
        <mxCell id="1" parent="0" />
        <mxCell id="8WOhdFGJpGClGAThh-gr-1" value="Administrador" style="text;html=1;align=center;verticalAlign=middle;resizable=0;points=[];autosize=1;strokeColor=none;fillColor=none;labelBackgroundColor=none;" parent="1" vertex="1">
          <mxGeometry x="-1620" y="-1040" width="100" height="30" as="geometry" />
        </mxCell>
        <mxCell id="8WOhdFGJpGClGAThh-gr-12" value="" style="endArrow=classic;html=1;rounded=0;exitX=1;exitY=0.5;exitDx=0;exitDy=0;labelBackgroundColor=none;fontColor=default;dashed=1;" parent="1" source="8WOhdFGJpGClGAThh-gr-6" target="Pb5jIujJ-xU9YGbqDY6J-1" edge="1">
          <mxGeometry width="50" height="50" relative="1" as="geometry">
            <mxPoint x="-1080" y="-415" as="sourcePoint" />
            <mxPoint x="-1430" y="-910" as="targetPoint" />
          </mxGeometry>
        </mxCell>
        <mxCell id="Xush0R4FDbhnRSaMg2tl-23" style="edgeStyle=orthogonalEdgeStyle;rounded=0;orthogonalLoop=1;jettySize=auto;html=1;exitX=0.5;exitY=1;exitDx=0;exitDy=0;labelBackgroundColor=none;fontColor=default;" parent="1" edge="1">
          <mxGeometry relative="1" as="geometry">
            <mxPoint x="-1540" y="490" as="sourcePoint" />
            <mxPoint x="-1540" y="490" as="targetPoint" />
          </mxGeometry>
        </mxCell>
        <mxCell id="diKH7t9uhdvl2OTYyAan-1" value="" style="shape=umlLifeline;perimeter=lifelinePerimeter;whiteSpace=wrap;html=1;container=1;dropTarget=0;collapsible=0;recursiveResize=0;outlineConnect=0;portConstraint=eastwest;newEdgeStyle={&quot;curved&quot;:0,&quot;rounded&quot;:0};participant=umlActor;" parent="1" vertex="1">
          <mxGeometry x="-1580" y="-1010" width="25" height="810" as="geometry" />
        </mxCell>
        <mxCell id="ZmQL_l78uOIx-WWGtojV-4" value="" style="html=1;points=[[0,0,0,0,5],[0,1,0,0,-5],[1,0,0,0,5],[1,1,0,0,-5]];perimeter=orthogonalPerimeter;outlineConnect=0;targetShapes=umlLifeline;portConstraint=eastwest;newEdgeStyle={&quot;curved&quot;:0,&quot;rounded&quot;:0};" vertex="1" parent="diKH7t9uhdvl2OTYyAan-1">
          <mxGeometry y="150" width="25" height="70" as="geometry" />
        </mxCell>
        <mxCell id="diKH7t9uhdvl2OTYyAan-2" value="GUI" style="shape=umlLifeline;perimeter=lifelinePerimeter;whiteSpace=wrap;html=1;container=1;dropTarget=0;collapsible=0;recursiveResize=0;outlineConnect=0;portConstraint=eastwest;newEdgeStyle={&quot;curved&quot;:0,&quot;rounded&quot;:0};" parent="1" vertex="1">
          <mxGeometry x="-1420" y="-1010" width="100" height="810" as="geometry" />
        </mxCell>
        <mxCell id="Pb5jIujJ-xU9YGbqDY6J-1" value="" style="html=1;points=[[0,0,0,0,5],[0,1,0,0,-5],[1,0,0,0,5],[1,1,0,0,-5]];perimeter=orthogonalPerimeter;outlineConnect=0;targetShapes=umlLifeline;portConstraint=eastwest;newEdgeStyle={&quot;curved&quot;:0,&quot;rounded&quot;:0};" parent="diKH7t9uhdvl2OTYyAan-2" vertex="1">
          <mxGeometry x="37.5" y="60" width="25" height="70" as="geometry" />
        </mxCell>
        <mxCell id="Pb5jIujJ-xU9YGbqDY6J-13" value="" style="html=1;points=[[0,0,0,0,5],[0,1,0,0,-5],[1,0,0,0,5],[1,1,0,0,-5]];perimeter=orthogonalPerimeter;outlineConnect=0;targetShapes=umlLifeline;portConstraint=eastwest;newEdgeStyle={&quot;curved&quot;:0,&quot;rounded&quot;:0};" parent="diKH7t9uhdvl2OTYyAan-2" vertex="1">
          <mxGeometry x="37.5" y="150" width="25" height="70" as="geometry" />
        </mxCell>
        <mxCell id="ZmQL_l78uOIx-WWGtojV-6" value="" style="html=1;points=[[0,0,0,0,5],[0,1,0,0,-5],[1,0,0,0,5],[1,1,0,0,-5]];perimeter=orthogonalPerimeter;outlineConnect=0;targetShapes=umlLifeline;portConstraint=eastwest;newEdgeStyle={&quot;curved&quot;:0,&quot;rounded&quot;:0};" vertex="1" parent="diKH7t9uhdvl2OTYyAan-2">
          <mxGeometry x="37.5" y="240" width="25" height="70" as="geometry" />
        </mxCell>
        <mxCell id="ZmQL_l78uOIx-WWGtojV-11" value="" style="html=1;points=[[0,0,0,0,5],[0,1,0,0,-5],[1,0,0,0,5],[1,1,0,0,-5]];perimeter=orthogonalPerimeter;outlineConnect=0;targetShapes=umlLifeline;portConstraint=eastwest;newEdgeStyle={&quot;curved&quot;:0,&quot;rounded&quot;:0};" vertex="1" parent="diKH7t9uhdvl2OTYyAan-2">
          <mxGeometry x="37.5" y="340" width="25" height="70" as="geometry" />
        </mxCell>
        <mxCell id="diKH7t9uhdvl2OTYyAan-3" value="Backend" style="shape=umlLifeline;perimeter=lifelinePerimeter;whiteSpace=wrap;html=1;container=1;dropTarget=0;collapsible=0;recursiveResize=0;outlineConnect=0;portConstraint=eastwest;newEdgeStyle={&quot;curved&quot;:0,&quot;rounded&quot;:0};" parent="1" vertex="1">
          <mxGeometry x="-1170" y="-1010" width="100" height="810" as="geometry" />
        </mxCell>
        <mxCell id="Pb5jIujJ-xU9YGbqDY6J-2" value="" style="html=1;points=[[0,0,0,0,5],[0,1,0,0,-5],[1,0,0,0,5],[1,1,0,0,-5]];perimeter=orthogonalPerimeter;outlineConnect=0;targetShapes=umlLifeline;portConstraint=eastwest;newEdgeStyle={&quot;curved&quot;:0,&quot;rounded&quot;:0};" parent="diKH7t9uhdvl2OTYyAan-3" vertex="1">
          <mxGeometry x="37.5" y="60" width="25" height="70" as="geometry" />
        </mxCell>
        <mxCell id="Pb5jIujJ-xU9YGbqDY6J-10" value="" style="html=1;points=[[0,0,0,0,5],[0,1,0,0,-5],[1,0,0,0,5],[1,1,0,0,-5]];perimeter=orthogonalPerimeter;outlineConnect=0;targetShapes=umlLifeline;portConstraint=eastwest;newEdgeStyle={&quot;curved&quot;:0,&quot;rounded&quot;:0};" parent="diKH7t9uhdvl2OTYyAan-3" vertex="1">
          <mxGeometry x="37.5" y="150" width="25" height="70" as="geometry" />
        </mxCell>
        <mxCell id="ZmQL_l78uOIx-WWGtojV-8" value="" style="html=1;points=[[0,0,0,0,5],[0,1,0,0,-5],[1,0,0,0,5],[1,1,0,0,-5]];perimeter=orthogonalPerimeter;outlineConnect=0;targetShapes=umlLifeline;portConstraint=eastwest;newEdgeStyle={&quot;curved&quot;:0,&quot;rounded&quot;:0};" vertex="1" parent="diKH7t9uhdvl2OTYyAan-3">
          <mxGeometry x="37.5" y="240" width="25" height="70" as="geometry" />
        </mxCell>
        <mxCell id="ZmQL_l78uOIx-WWGtojV-10" value="" style="html=1;points=[[0,0,0,0,5],[0,1,0,0,-5],[1,0,0,0,5],[1,1,0,0,-5]];perimeter=orthogonalPerimeter;outlineConnect=0;targetShapes=umlLifeline;portConstraint=eastwest;newEdgeStyle={&quot;curved&quot;:0,&quot;rounded&quot;:0};" vertex="1" parent="diKH7t9uhdvl2OTYyAan-3">
          <mxGeometry x="37.5" y="340" width="25" height="70" as="geometry" />
        </mxCell>
        <mxCell id="diKH7t9uhdvl2OTYyAan-4" value="Database" style="shape=umlLifeline;perimeter=lifelinePerimeter;whiteSpace=wrap;html=1;container=1;dropTarget=0;collapsible=0;recursiveResize=0;outlineConnect=0;portConstraint=eastwest;newEdgeStyle={&quot;curved&quot;:0,&quot;rounded&quot;:0};" parent="1" vertex="1">
          <mxGeometry x="-890" y="-1010" width="100" height="810" as="geometry" />
        </mxCell>
        <mxCell id="Pb5jIujJ-xU9YGbqDY6J-5" value="" style="html=1;points=[[0,0,0,0,5],[0,1,0,0,-5],[1,0,0,0,5],[1,1,0,0,-5]];perimeter=orthogonalPerimeter;outlineConnect=0;targetShapes=umlLifeline;portConstraint=eastwest;newEdgeStyle={&quot;curved&quot;:0,&quot;rounded&quot;:0};" parent="diKH7t9uhdvl2OTYyAan-4" vertex="1">
          <mxGeometry x="37.5" y="60" width="25" height="70" as="geometry" />
        </mxCell>
        <mxCell id="ZmQL_l78uOIx-WWGtojV-9" value="" style="html=1;points=[[0,0,0,0,5],[0,1,0,0,-5],[1,0,0,0,5],[1,1,0,0,-5]];perimeter=orthogonalPerimeter;outlineConnect=0;targetShapes=umlLifeline;portConstraint=eastwest;newEdgeStyle={&quot;curved&quot;:0,&quot;rounded&quot;:0};" vertex="1" parent="diKH7t9uhdvl2OTYyAan-4">
          <mxGeometry x="40" y="240" width="25" height="70" as="geometry" />
        </mxCell>
        <mxCell id="8WOhdFGJpGClGAThh-gr-6" value="Add_product" style="whiteSpace=wrap;html=1;labelBackgroundColor=none;" parent="1" vertex="1">
          <mxGeometry x="-1630" y="-935" width="120" height="40" as="geometry" />
        </mxCell>
        <mxCell id="Pb5jIujJ-xU9YGbqDY6J-3" style="edgeStyle=orthogonalEdgeStyle;rounded=0;orthogonalLoop=1;jettySize=auto;html=1;curved=0;dashed=1;" parent="1" source="Pb5jIujJ-xU9YGbqDY6J-1" target="Pb5jIujJ-xU9YGbqDY6J-2" edge="1">
          <mxGeometry relative="1" as="geometry" />
        </mxCell>
        <mxCell id="Pb5jIujJ-xU9YGbqDY6J-4" value="Method:&lt;div&gt;Post_product(department, product_type)&lt;/div&gt;" style="text;html=1;align=center;verticalAlign=middle;whiteSpace=wrap;rounded=0;" parent="1" vertex="1">
          <mxGeometry x="-1280" y="-950" width="60" height="30" as="geometry" />
        </mxCell>
        <mxCell id="Pb5jIujJ-xU9YGbqDY6J-6" style="edgeStyle=orthogonalEdgeStyle;rounded=0;orthogonalLoop=1;jettySize=auto;html=1;curved=0;dashed=1;" parent="1" source="Pb5jIujJ-xU9YGbqDY6J-2" target="Pb5jIujJ-xU9YGbqDY6J-5" edge="1">
          <mxGeometry relative="1" as="geometry" />
        </mxCell>
        <mxCell id="Pb5jIujJ-xU9YGbqDY6J-11" style="edgeStyle=orthogonalEdgeStyle;rounded=0;orthogonalLoop=1;jettySize=auto;html=1;curved=0;dashed=1;" parent="1" source="Pb5jIujJ-xU9YGbqDY6J-5" target="Pb5jIujJ-xU9YGbqDY6J-10" edge="1">
          <mxGeometry relative="1" as="geometry">
            <Array as="points">
              <mxPoint x="-840" y="-825" />
            </Array>
          </mxGeometry>
        </mxCell>
        <mxCell id="Pb5jIujJ-xU9YGbqDY6J-12" value="&lt;div&gt;Method:&amp;nbsp;&lt;/div&gt;&lt;div&gt;Product_info(id, name, price, Stock, caracteristics, image)&lt;/div&gt;" style="text;html=1;align=center;verticalAlign=middle;whiteSpace=wrap;rounded=0;" parent="1" vertex="1">
          <mxGeometry x="-1070" y="-860" width="180" height="30" as="geometry" />
        </mxCell>
        <mxCell id="Pb5jIujJ-xU9YGbqDY6J-14" style="edgeStyle=orthogonalEdgeStyle;rounded=0;orthogonalLoop=1;jettySize=auto;html=1;curved=0;dashed=1;" parent="1" source="Pb5jIujJ-xU9YGbqDY6J-10" target="Pb5jIujJ-xU9YGbqDY6J-13" edge="1">
          <mxGeometry relative="1" as="geometry" />
        </mxCell>
        <mxCell id="ZmQL_l78uOIx-WWGtojV-1" value="Method:&lt;div&gt;Post_product(department, product_type)&lt;/div&gt;" style="text;html=1;align=center;verticalAlign=middle;whiteSpace=wrap;rounded=0;" vertex="1" parent="1">
          <mxGeometry x="-1020" y="-950" width="60" height="30" as="geometry" />
        </mxCell>
        <mxCell id="ZmQL_l78uOIx-WWGtojV-2" value="&lt;div&gt;Method:&amp;nbsp;&lt;/div&gt;&lt;div&gt;Product_info(id, name, price, Stock, caracteristics, image)&lt;/div&gt;" style="text;html=1;align=center;verticalAlign=middle;whiteSpace=wrap;rounded=0;" vertex="1" parent="1">
          <mxGeometry x="-1330" y="-860" width="180" height="30" as="geometry" />
        </mxCell>
        <mxCell id="ZmQL_l78uOIx-WWGtojV-5" style="edgeStyle=orthogonalEdgeStyle;rounded=0;orthogonalLoop=1;jettySize=auto;html=1;curved=0;dashed=1;" edge="1" parent="1" source="Pb5jIujJ-xU9YGbqDY6J-13" target="ZmQL_l78uOIx-WWGtojV-4">
          <mxGeometry relative="1" as="geometry" />
        </mxCell>
        <mxCell id="ZmQL_l78uOIx-WWGtojV-7" style="edgeStyle=orthogonalEdgeStyle;rounded=0;orthogonalLoop=1;jettySize=auto;html=1;curved=0;dashed=1;" edge="1" parent="1" source="ZmQL_l78uOIx-WWGtojV-4" target="ZmQL_l78uOIx-WWGtojV-6">
          <mxGeometry relative="1" as="geometry">
            <Array as="points">
              <mxPoint x="-1567" y="-735" />
            </Array>
          </mxGeometry>
        </mxCell>
        <mxCell id="ZmQL_l78uOIx-WWGtojV-12" style="edgeStyle=orthogonalEdgeStyle;rounded=0;orthogonalLoop=1;jettySize=auto;html=1;curved=0;dashed=1;" edge="1" parent="1" source="ZmQL_l78uOIx-WWGtojV-6" target="ZmQL_l78uOIx-WWGtojV-8">
          <mxGeometry relative="1" as="geometry" />
        </mxCell>
        <mxCell id="ZmQL_l78uOIx-WWGtojV-13" style="edgeStyle=orthogonalEdgeStyle;rounded=0;orthogonalLoop=1;jettySize=auto;html=1;curved=0;dashed=1;" edge="1" parent="1" source="ZmQL_l78uOIx-WWGtojV-8" target="ZmQL_l78uOIx-WWGtojV-9">
          <mxGeometry relative="1" as="geometry" />
        </mxCell>
        <mxCell id="ZmQL_l78uOIx-WWGtojV-14" style="edgeStyle=orthogonalEdgeStyle;rounded=0;orthogonalLoop=1;jettySize=auto;html=1;curved=0;dashed=1;" edge="1" parent="1" source="ZmQL_l78uOIx-WWGtojV-9" target="ZmQL_l78uOIx-WWGtojV-10">
          <mxGeometry relative="1" as="geometry">
            <Array as="points">
              <mxPoint x="-837" y="-635" />
            </Array>
          </mxGeometry>
        </mxCell>
        <mxCell id="ZmQL_l78uOIx-WWGtojV-15" style="edgeStyle=orthogonalEdgeStyle;rounded=0;orthogonalLoop=1;jettySize=auto;html=1;curved=0;dashed=1;" edge="1" parent="1" source="ZmQL_l78uOIx-WWGtojV-10" target="ZmQL_l78uOIx-WWGtojV-11">
          <mxGeometry relative="1" as="geometry" />
        </mxCell>
        <mxCell id="ZmQL_l78uOIx-WWGtojV-16" value="&lt;div&gt;Method:&amp;nbsp;&lt;/div&gt;&lt;div&gt;Save_post(id, name, price, Stock, caracteristics, image)&lt;/div&gt;" style="text;html=1;align=center;verticalAlign=middle;whiteSpace=wrap;rounded=0;" vertex="1" parent="1">
          <mxGeometry x="-1330" y="-770" width="180" height="30" as="geometry" />
        </mxCell>
        <mxCell id="ZmQL_l78uOIx-WWGtojV-17" value="&lt;div&gt;Method:&amp;nbsp;&lt;/div&gt;&lt;div&gt;Save_post(id, name, price, Stock, caracteristics, image)&lt;/div&gt;" style="text;html=1;align=center;verticalAlign=middle;whiteSpace=wrap;rounded=0;" vertex="1" parent="1">
          <mxGeometry x="-1070" y="-770" width="180" height="30" as="geometry" />
        </mxCell>
        <mxCell id="ZmQL_l78uOIx-WWGtojV-18" value="&lt;div&gt;Method:&amp;nbsp;&lt;/div&gt;&lt;div&gt;Product_post(id, name, price, Stock, caracteristics, image)&lt;/div&gt;" style="text;html=1;align=center;verticalAlign=middle;whiteSpace=wrap;rounded=0;" vertex="1" parent="1">
          <mxGeometry x="-1070" y="-670" width="180" height="30" as="geometry" />
        </mxCell>
        <mxCell id="ZmQL_l78uOIx-WWGtojV-20" value="&lt;div&gt;Method:&amp;nbsp;&lt;/div&gt;&lt;div&gt;Product_post(id, name, price, Stock, caracteristics, image)&lt;/div&gt;" style="text;html=1;align=center;verticalAlign=middle;whiteSpace=wrap;rounded=0;" vertex="1" parent="1">
          <mxGeometry x="-1330" y="-670" width="180" height="30" as="geometry" />
        </mxCell>
      </root>
    </mxGraphModel>
  </diagram>
</mxfile>
